<?xml version="1.0" standalone="no"?>
<!DOCTYPE svg PUBLIC "-//W3C//DTD SVG 20010904//EN"
 "http://www.w3.org/TR/2001/REC-SVG-20010904/DTD/svg10.dtd">
<svg version="1.0" xmlns="http://www.w3.org/2000/svg"
 width="493.000000pt" height="178.000000pt" viewBox="0 0 493.000000 178.000000"
 preserveAspectRatio="xMidYMid meet">
<metadata>
Created by potrace 1.16, written by Peter Selinger 2001-2019
</metadata>
<g transform="translate(0.000000,178.000000) scale(0.100000,-0.100000)"
fill="#000000" stroke="none">
<path d="M891 1592 c-19 -9 -44 -30 -55 -45 -20 -27 -21 -42 -21 -235 -1 -186
-3 -212 -21 -252 -30 -65 -83 -108 -143 -116 -29 -4 -52 -12 -55 -21 -6 -15 0
-18 54 -27 58 -11 105 -49 137 -113 l28 -58 -3 -189 c-1 -118 2 -202 9 -223
18 -55 59 -76 161 -81 61 -3 93 -1 103 8 29 24 15 30 -66 30 -51 0 -93 6 -113
15 -58 28 -61 39 -61 265 l0 205 -29 58 c-17 36 -42 69 -65 85 l-36 26 41 38
c23 21 52 62 65 91 23 49 24 63 24 259 0 259 -4 251 143 257 90 3 119 12 106
33 -10 16 -167 9 -203 -10z"/>
<path d="M3768 1593 c-19 -3 -28 -10 -28 -23 0 -17 7 -18 88 -14 76 5 91 3
119 -15 44 -28 53 -69 53 -245 0 -183 15 -246 72 -311 21 -24 48 -47 59 -50
18 -6 16 -11 -25 -56 -24 -27 -51 -70 -60 -96 -19 -55 -21 -173 -5 -323 17
-163 -1 -187 -148 -198 -72 -6 -88 -10 -91 -25 -3 -14 5 -17 52 -17 94 0 152
17 185 55 39 45 47 101 32 234 -15 144 -14 219 5 274 19 57 69 102 126 117 64
16 68 18 68 33 0 10 -16 16 -51 19 -55 6 -87 25 -130 79 -44 53 -59 132 -60
304 0 172 -9 209 -58 242 -28 19 -46 23 -105 22 -39 -1 -83 -4 -98 -6z"/>
<path d="M1797 1363 c-9 -37 -30 -142 -48 -233 -17 -91 -35 -168 -39 -173 -3
-4 -71 -27 -149 -51 -137 -43 -143 -43 -138 -23 3 12 25 117 48 233 37 180 42
214 30 228 -23 28 -53 18 -103 -35 -59 -63 -118 -178 -118 -230 0 -40 26 -69
62 -69 26 0 22 28 -4 32 -56 8 -16 138 73 241 44 51 69 60 69 25 0 -19 -88
-450 -93 -454 -1 -1 -65 -23 -141 -49 -132 -44 -205 -75 -234 -98 -9 -7 -9
-13 -1 -23 15 -18 29 -18 29 0 0 7 24 24 53 36 68 30 279 101 284 96 2 -2 -17
-110 -42 -239 -26 -130 -45 -249 -43 -264 5 -49 23 -26 30 39 11 91 86 470 95
478 9 8 285 92 289 88 1 -2 -15 -90 -35 -196 -32 -165 -36 -221 -15 -199 2 2
20 87 39 188 20 101 39 193 44 204 6 15 32 27 90 44 76 22 100 35 88 48 -3 2
-42 -6 -86 -20 -73 -22 -81 -23 -81 -8 0 10 18 107 40 217 22 109 41 205 43
213 1 8 -3 16 -10 18 -7 3 -17 -22 -26 -64z"/>
<path d="M3154 1390 c-59 -24 -157 -201 -250 -455 l-34 -90 8 95 c11 151 8
235 -12 264 -23 35 -38 33 -80 -14 -64 -71 -202 -375 -282 -622 -15 -48 -29
-86 -31 -84 -2 2 28 144 67 317 104 464 109 489 103 521 -18 90 -127 33 -224
-116 -99 -150 -104 -284 -14 -322 39 -16 95 -19 95 -5 0 10 -13 15 -68 26 -72
15 -85 100 -33 211 73 157 221 283 221 189 0 -15 -32 -167 -71 -338 -131 -577
-156 -714 -127 -705 14 5 17 13 87 233 121 378 293 737 335 695 18 -18 11
-238 -13 -395 -24 -158 -25 -175 -12 -175 5 0 30 65 55 143 53 167 139 379
191 473 37 66 90 134 105 134 32 0 19 -133 -55 -555 -68 -391 -70 -405 -52
-429 12 -17 14 -17 30 -1 21 21 22 35 1 35 -20 0 -20 -1 41 350 81 465 92 581
59 614 -8 9 -16 16 -17 15 -1 0 -11 -4 -23 -9z"/>
<path d="M3401 900 c-95 -23 -156 -126 -131 -219 34 -129 189 -179 290 -95
l30 26 0 -31 c0 -24 4 -31 20 -31 19 0 20 7 20 175 0 149 -2 175 -15 175 -8 0
-15 -9 -15 -19 0 -11 -3 -27 -6 -36 -6 -14 -8 -14 -20 3 -28 40 -115 66 -173
52z m128 -57 c86 -64 76 -197 -20 -245 -44 -23 -86 -23 -129 1 -39 20 -80 82
-80 121 0 43 42 112 80 132 43 23 110 19 149 -9z"/>
<path d="M1990 751 c0 -147 0 -149 26 -174 14 -15 42 -29 61 -33 45 -8 115 19
148 57 l25 31 0 -41 c0 -34 3 -41 20 -41 19 0 20 7 20 175 0 166 -1 175 -19
175 -18 0 -20 -10 -23 -119 -3 -111 -5 -121 -28 -147 -52 -56 -122 -68 -167
-30 -28 24 -28 25 -31 160 -3 108 -7 136 -18 136 -11 0 -14 -28 -14 -149z"/>
</g>
</svg>
